<svg xmlns="http://www.w3.org/2000/svg" width="111.407" height="111.25" viewBox="0 0 111.407 111.25">
  <metadata><?xpacket begin="﻿" id="W5M0MpCehiHzreSzNTczkc9d"?>
<x:xmpmeta xmlns:x="adobe:ns:meta/" x:xmptk="Adobe XMP Core 5.6-c138 79.159824, 2016/09/14-01:09:01        ">
   <rdf:RDF xmlns:rdf="http://www.w3.org/1999/02/22-rdf-syntax-ns#">
      <rdf:Description rdf:about=""/>
   </rdf:RDF>
</x:xmpmeta>
                                                                                                    
                                                                                                    
                                                                                                    
                                                                                                    
                                                                                                    
                                                                                                    
                                                                                                    
                                                                                                    
                                                                                                    
                                                                                                    
                                                                                                    
                                                                                                    
                                                                                                    
                                                                                                    
                                                                                                    
                                                                                                    
                                                                                                    
                                                                                                    
                                                                                                    
                                                                                                    
                           
<?xpacket end="w"?></metadata>
<defs>
    <style>
      .cls-1 {
        fill: #fff8f8;
        fill-rule: evenodd;
      }
    </style>
  </defs>
  <path id="step1" class="cls-1" d="M920.75,1469H908v-1.31a4.84,4.84,0,0,1,.8-0.03c0.312,0.02.68,0.03,1.1,0.03s0.821-.02,1.2-0.05a9.47,9.47,0,0,0,1.031-.14l0.188-.19,0.562-.56V1437.5l-0.188-.19a7.667,7.667,0,0,0-1.007-.14c-0.391-.03-0.813-0.04-1.266-0.04s-0.852,0-1.195.02a5.469,5.469,0,0,1-.844-0.02v-1.32h0.141a4.646,4.646,0,0,0,1.148.1,6.207,6.207,0,0,0,1.992-.43,5.639,5.639,0,0,0,2.039-1.19,7.235,7.235,0,0,0,1.242-1.48h1.126v33.94l0.187,0.19a3.657,3.657,0,0,0,.891.56,2.288,2.288,0,0,0,1.1.21c0.391-.02.727-0.04,1.008-0.07a1.563,1.563,0,0,1,.7.05h0.985V1469H920.75Zm-16.828-23.39a8.628,8.628,0,0,1-1.969,2.58,8.779,8.779,0,0,1-3.515,1.9,16.344,16.344,0,0,1-3.68.7,19.376,19.376,0,0,0-2.274.21h-0.515c-0.188,0-.407.01-0.657,0.02s-0.468.04-.656,0.07-0.344.07-.468,0.1l-0.188.18v12.19a1.592,1.592,0,0,1-.023.24,1.194,1.194,0,0,0,0,.35,2.979,2.979,0,0,0,.07.4,1.158,1.158,0,0,0,.141.33l0.187,0.18,0.375,0.38h1.875v1.31H884v-1.31h0.141c0.093,0,.211.01,0.351,0.02a3.685,3.685,0,0,0,.492.02,2.171,2.171,0,0,0,.563-0.07,3.427,3.427,0,0,0,.515-0.16l0.188-.19c0.031-.06.078-0.18,0.141-0.35a3.952,3.952,0,0,0,.164-0.66,3.8,3.8,0,0,0,.07-0.65v-27.05c0-.08-0.008-0.19-0.023-0.33a3.018,3.018,0,0,0-.071-0.39c-0.031-.13-0.063-0.25-0.093-0.38l-0.188-.19-0.562-.56H884v-1.31h10.125c0.375,0.03.906,0.08,1.594,0.16a12.775,12.775,0,0,1,2.508.61,8.487,8.487,0,0,1,2.507,1.29,11.288,11.288,0,0,1,1.641,1.5l0.188,0.19a12.223,12.223,0,0,1,1.171,1.9,6.909,6.909,0,0,1,.7,2.48,7.871,7.871,0,0,1-.093,2.46Q904.109,1444.86,903.922,1445.61Zm-3.047-4.88a2.436,2.436,0,0,1-.117-0.28c-0.047-.12-0.1-0.27-0.164-0.44a2.392,2.392,0,0,1-.117-0.4,0.4,0.4,0,0,1,.023-0.24l-0.188-.18a7.167,7.167,0,0,0-1.335-2.14,7.339,7.339,0,0,0-2.907-1.96,6.708,6.708,0,0,0-3.281-.61,6.14,6.14,0,0,0-2.086.54,3.454,3.454,0,0,0-.492.49,1.126,1.126,0,0,0-.258.54,1.038,1.038,0,0,0,0,.44,1.055,1.055,0,0,1,.047.26v12.94l0.188,0.18q0.561-.045,1.406-0.09c0.562-.03,1.242-0.08,2.039-0.16a14.09,14.09,0,0,0,2.3-.42c0.734-.21,1.382-0.42,1.945-0.64l0.187-.18a6.551,6.551,0,0,0,1.594-1.58,5.918,5.918,0,0,0,1.032-2.36,8.45,8.45,0,0,0,.21-2.28A9.2,9.2,0,0,1,900.875,1440.73Zm-21.258,21.38c-0.172.97-.336,1.84-0.492,2.62s-0.3,1.46-.422,2.02H860v-1.31h1.875l0.187-.19,0.75-.75v-0.19a2.927,2.927,0,0,1,.047-0.42c0.031-.19.063-0.42,0.094-0.7a6.7,6.7,0,0,0,.047-0.71v-25.94a2.977,2.977,0,0,0-.047-0.45c-0.031-.18-0.063-0.35-0.094-0.49a1.709,1.709,0,0,1-.047-0.35l-0.187-.19-0.75-.56h-1.687v-1.31h18.375v0.18c0,0.44.03,1.01,0.093,1.69s0.133,1.52.211,2.49,0.141,1.81.188,2.53,0.07,1.3.07,1.73h-0.188a0.866,0.866,0,0,1-.82-0.28,3.32,3.32,0,0,1-.726-1.36q-0.328-.975-0.633-1.71a2.824,2.824,0,0,0-.633-1.01v-0.14l-0.188-.18a17.162,17.162,0,0,0-1.8-1.46,6.564,6.564,0,0,0-2.508-1.05,6.978,6.978,0,0,0-2.578-.12c-0.75.13-1.391,0.25-1.922,0.38l-0.187.18-0.563.75v12.57l0.187,0.18a6.176,6.176,0,0,1,1.055,0c0.391,0.03.859,0.07,1.406,0.1a5.427,5.427,0,0,0,1.571-.14A7.114,7.114,0,0,0,872,1448a5.72,5.72,0,0,0,.445-1.27,5.265,5.265,0,0,0,.141-1.38q-0.024-.675-0.07-1.17a2.56,2.56,0,0,1,.047-0.87h1.312v12.38h-1.312v-0.19a5.222,5.222,0,0,1-.024-0.89c0.015-.34.024-0.75,0.024-1.22a7.749,7.749,0,0,0-.118-1.36c-0.078-.44-0.164-0.84-0.258-1.22l-0.187-.19a4.76,4.76,0,0,0-.984-0.56,3.062,3.062,0,0,0-1.219-.21c-0.438.02-.8,0.04-1.078,0.07a1.563,1.563,0,0,1-.7-0.05h-1.454l-0.187.19v12.75a0.786,0.786,0,0,0-.047.31,1.747,1.747,0,0,0,.094.51,5.265,5.265,0,0,0,.187.54q0.095,0.24.141,0.33l0.188,0.19a10.246,10.246,0,0,0,1.687.68,5.56,5.56,0,0,0,2.273.16,10.546,10.546,0,0,0,2.368-.51c0.718-.25,1.343-0.49,1.875-0.71q0.563-.51,1.265-1.29a9.577,9.577,0,0,0,1.289-1.82,14.287,14.287,0,0,0,.891-1.88q0.3-.825.539-1.38v-0.19h1.312v0.19q-0.139.7-.351,1.71T879.617,1462.11ZM855.57,1441.7a2.242,2.242,0,0,1-.8-1.11c-0.234-.56-0.429-1.04-0.585-1.45a3.263,3.263,0,0,0-.422-0.84,1.4,1.4,0,0,1-.118-0.14c-0.046-.07-0.109-0.16-0.187-0.29a1.521,1.521,0,0,1-.164-0.32,0.773,0.773,0,0,1-.047-0.24l-0.188-.18c-0.062-.1-0.156-0.22-0.281-0.38a6.16,6.16,0,0,0-.562-0.59c-0.251-.23-0.462-0.42-0.633-0.56s-0.305-.26-0.4-0.35H851l-0.75-.19h-0.187l-1.126.38-0.187.19a2.043,2.043,0,0,0-.328.65,5.1,5.1,0,0,0-.211.99,5.283,5.283,0,0,0-.047.96c0.015,0.26.023,0.46,0.023,0.58v24.56a1.226,1.226,0,0,0-.046.36,3.331,3.331,0,0,0,.07.58,5.127,5.127,0,0,0,.164.66,3.659,3.659,0,0,0,.188.47l0.187,0.19a3.9,3.9,0,0,0,.609.16,4.343,4.343,0,0,0,.844.07c0.312,0,.578-0.01.8-0.02s0.406-.03.563-0.03v1.31h-10.5v-1.31h0.14c0.156,0,.352.01,0.586,0.03s0.5,0.03.8,0.04a4.149,4.149,0,0,0,.867-0.04,4.869,4.869,0,0,0,.8-0.21l0.187-.19,0.376-.38v-28.87l-0.188-.19-0.75-.75h-0.188l-0.75-.19H842.75c-0.094.03-.187,0.07-0.281,0.1a3.324,3.324,0,0,0-.375.14c-0.157.06-.305,0.12-0.446,0.18a2.646,2.646,0,0,1-.4.15l-0.187.18c-0.376.35-.774,0.76-1.2,1.24a10.567,10.567,0,0,0-1.195,1.74,14.614,14.614,0,0,0-.867,1.78c-0.2.52-.368,0.93-0.492,1.24H836v-0.18q0.046-.7.141-1.74c0.062-.69.148-1.44,0.257-2.27s0.188-1.55.235-2.16,0.086-1.12.117-1.52h19.312v0.18c0,0.41.016,0.93,0.047,1.55s0.094,1.38.188,2.25,0.164,1.64.211,2.3,0.086,1.19.117,1.59h-0.187A1.008,1.008,0,0,1,855.57,1441.7Zm-30.258-7.88c0.907,0.27,1.672.49,2.3,0.68a1.463,1.463,0,0,0,.516,0,3.409,3.409,0,0,0,.82-0.26,3.257,3.257,0,0,0,.844-0.51q0.351-.315.586-0.54l0.187,0.18c0.094,0.51.25,1.15,0.469,1.95s0.492,1.73.821,2.79,0.6,1.96.82,2.69,0.39,1.33.516,1.76l-0.188.19a3.382,3.382,0,0,1-.375.09,1.111,1.111,0,0,1-.539-0.02,0.587,0.587,0,0,1-.422-0.33,1.28,1.28,0,0,1-.117-0.54,14.375,14.375,0,0,0-1.383-2.43,13.184,13.184,0,0,0-2.906-2.98,7.069,7.069,0,0,0-4.479-1.91l-3.541,13.11a20.7,20.7,0,0,1,1.9-1.03s1.867,1.11,2.976,1.69,2.086,1.09,2.93,1.55,1.578,0.86,2.2,1.24l0.188,0.18a12.115,12.115,0,0,1,1.945,1.62,7.937,7.937,0,0,1,1.711,2.72,6.351,6.351,0,0,1,.515,2.98,9.636,9.636,0,0,1-.421,2.11,8.855,8.855,0,0,1-6.024,5.65,10.3,10.3,0,0,1-4.547.51,10.535,10.535,0,0,1-2.789-.73c-0.25-.12-0.516-0.25-0.8-0.37a2.792,2.792,0,0,0-.937-0.23,2.709,2.709,0,0,0-.914.04c-0.266.06-.493,0.11-0.68,0.14l-0.187.19a0.255,0.255,0,0,0-.141.07c-0.063.05-.149,0.11-0.258,0.19a2.1,2.1,0,0,0-.3.26c-0.093.09-.172,0.17-0.234,0.23l-0.188-.19q-0.093-.33-0.257-0.84c-0.082-.26-0.186-0.58-0.3-0.93l-4.145,15.34-0.966-.26,12.222-45.22c-0.132.02-.293,0.01-0.411,0.04-0.739.16,0.363-.88,0.727-1.21l17.462-64.61,0.966,0.26L823.1,1433.46A16.633,16.633,0,0,1,825.312,1433.82Zm-9.445,27.21a21.821,21.821,0,0,0,4.266,3.68,7.233,7.233,0,0,0,8.508-.44,7.271,7.271,0,0,0,1.054-1.29,5.04,5.04,0,0,0,.727-1.95,6.707,6.707,0,0,0,.094-1.87c-0.063-.5-0.11-0.91-0.141-1.22l-0.187-.19a8,8,0,0,0-1.5-2.23,12.51,12.51,0,0,0-2.954-2.29q-1.875-1.11-3.234-1.74a13.436,13.436,0,0,1-2.016-1.1,12.086,12.086,0,0,1-1.723-.89l-3.372,12.48C815.65,1461.44,815.867,1461.03,815.867,1461.03Z" transform="translate(-809.531 -1368.88)"/>
</svg>
