<svg xmlns="http://www.w3.org/2000/svg" width="116.1" height="111.25" viewBox="0 0 116.1 111.25">
  <metadata><?xpacket begin="﻿" id="W5M0MpCehiHzreSzNTczkc9d"?>
<x:xmpmeta xmlns:x="adobe:ns:meta/" x:xmptk="Adobe XMP Core 5.6-c138 79.159824, 2016/09/14-01:09:01        ">
   <rdf:RDF xmlns:rdf="http://www.w3.org/1999/02/22-rdf-syntax-ns#">
      <rdf:Description rdf:about=""/>
   </rdf:RDF>
</x:xmpmeta>
                                                                                                    
                                                                                                    
                                                                                                    
                                                                                                    
                                                                                                    
                                                                                                    
                                                                                                    
                                                                                                    
                                                                                                    
                                                                                                    
                                                                                                    
                                                                                                    
                                                                                                    
                                                                                                    
                                                                                                    
                                                                                                    
                                                                                                    
                                                                                                    
                                                                                                    
                                                                                                    
                           
<?xpacket end="w"?></metadata>
<defs>
    <style>
      .cls-1 {
        fill-rule: evenodd;
      }
    </style>
  </defs>
  <path id="step2" class="cls-1" d="M1296.75,1292.44a0.691,0.691,0,0,0,.28.04,2.042,2.042,0,0,0,.49-0.07,5.08,5.08,0,0,0,.59-0.16,5.187,5.187,0,0,0,.52-0.19l0.18-.18a4.853,4.853,0,0,0,.47-0.71,4.2,4.2,0,0,0,.38-0.94q0.135-.51.21-0.93a2.744,2.744,0,0,1,.21-0.75c0-.13.01-0.26,0.02-0.4s0.04-.27.07-0.4,0.06-.23.07-0.3,0.04-.17.07-0.26h1.31v0.18c-0.12.51-.23,1.09-0.32,1.76s-0.19,1.43-.28,2.28-0.19,1.6-.29,2.27-0.18,1.26-.28,1.76h-16.08v-0.19a21.564,21.564,0,0,1,.54-2.48,23.008,23.008,0,0,1,1.25-3.33,33.135,33.135,0,0,1,1.66-3.28c0.55-.94,1.02-1.72,1.43-2.35l0.19-.18c0.25-.38.58-0.86,0.98-1.43s0.9-1.25,1.48-2.02,1.1-1.45,1.57-2.06,0.87-1.15,1.22-1.62l0.18-.19a20.581,20.581,0,0,0,1.22-2.04,15.631,15.631,0,0,0,1.25-3.16,12.183,12.183,0,0,0,.53-3.19,9.961,9.961,0,0,0-.18-2.11l-0.19-.19a5.5,5.5,0,0,0-2.02-3.16,4.835,4.835,0,0,0-4.43-.8,5.5,5.5,0,0,0-3.82,2.61,5.579,5.579,0,0,0-.79,3.61l0.19,0.18a2.7,2.7,0,0,0,.49.4c0.2,0.14.44,0.3,0.72,0.47a4.906,4.906,0,0,1,.73.52,3.228,3.228,0,0,1,.49.49v0.18a2.613,2.613,0,0,1,.1.36,2.536,2.536,0,0,1,0,.68,4.007,4.007,0,0,1-.14.68c-0.07.17-.11,0.29-0.14,0.35l-0.19.19a1.959,1.959,0,0,1-1.24.49,2.645,2.645,0,0,1-1.79-.68,3.474,3.474,0,0,1-1.24-1.62,2.668,2.668,0,0,1-.14-1.43,6.192,6.192,0,0,1,.12-2.86,7.735,7.735,0,0,1,2.11-3.58,7.991,7.991,0,0,1,3.4-2.32,6.612,6.612,0,0,1,2.71-.38,4.883,4.883,0,0,1,2.09-.05,7.281,7.281,0,0,1,3.24,1.55,8.073,8.073,0,0,1,2.55,2.98,7.488,7.488,0,0,1,.8,2.79,12,12,0,0,1,.09,1.61,9.679,9.679,0,0,1-.35,2.32,12.212,12.212,0,0,1-.89,2.42c-0.36.7-.68,1.29-0.96,1.75l-0.19.19c-0.66.85-1.57,1.92-2.74,3.21s-2.5,2.83-3.99,4.6a39.162,39.162,0,0,0-3.42,4.61,17.824,17.824,0,0,0-1.62,3.24,0.583,0.583,0,0,0-.11.19,1.694,1.694,0,0,0-.14.37c-0.05.16-.09,0.28-0.12,0.35a0.316,0.316,0,0,0,.14.31h9.75Zm-16.83-19.83a8.454,8.454,0,0,1-1.97,2.58,8.757,8.757,0,0,1-3.51,1.9,16.415,16.415,0,0,1-3.68.7,19.417,19.417,0,0,0-2.28.21h-0.51c-0.19,0-.41.01-0.66,0.02s-0.47.04-.65,0.07-0.35.07-.47,0.1l-0.19.19v12.18c0,0.07-.01.14-0.02,0.24a1.017,1.017,0,0,0,0,.35,2.569,2.569,0,0,0,.07.4,0.968,0.968,0,0,0,.14.33l0.19,0.18,0.37,0.38h1.87v1.31H1260v-1.31h0.14c0.09,0,.21.01,0.35,0.02a3.7,3.7,0,0,0,.49.02,2.224,2.224,0,0,0,.57-0.07,3.4,3.4,0,0,0,.51-0.16l0.19-.19a3.462,3.462,0,0,0,.14-0.35,3.546,3.546,0,0,0,.16-0.66,3.664,3.664,0,0,0,.08-0.65v-27.05a2.48,2.48,0,0,0-.03-0.33,2.256,2.256,0,0,0-.07-0.39c-0.03-.13-0.06-0.25-0.09-0.38l-0.19-.19-0.56-.56H1260v-1.31h10.13c0.37,0.03.9,0.08,1.59,0.16a12.823,12.823,0,0,1,2.51.61,8.408,8.408,0,0,1,2.5,1.29,11.462,11.462,0,0,1,1.65,1.5l0.18,0.19a11.506,11.506,0,0,1,1.17,1.9,6.954,6.954,0,0,1,.71,2.48,7.857,7.857,0,0,1-.1,2.46Q1280.115,1271.86,1279.92,1272.61Zm-3.04-4.88a1.1,1.1,0,0,1-.12-0.28c-0.05-.12-0.1-0.27-0.17-0.44a2.073,2.073,0,0,1-.11-0.4,0.347,0.347,0,0,1,.02-0.23l-0.19-.19a7.2,7.2,0,0,0-1.33-2.14,7.373,7.373,0,0,0-2.91-1.96,6.715,6.715,0,0,0-3.28-.61,6.187,6.187,0,0,0-2.09.54,3.78,3.78,0,0,0-.49.49,1.13,1.13,0,0,0-.26.54,1.072,1.072,0,0,0,0,.44,1.143,1.143,0,0,1,.05.26v12.94l0.19,0.18c0.37-.03.84-0.06,1.4-0.09s1.25-.08,2.04-0.16a13.971,13.971,0,0,0,2.3-.42c0.73-.21,1.38-0.42,1.94-0.64l0.19-.19a6.228,6.228,0,0,0,1.6-1.57,5.943,5.943,0,0,0,1.03-2.36,8.213,8.213,0,0,0,.21-2.28A7.764,7.764,0,0,1,1276.88,1267.73Zm-21.26,21.38c-0.17.97-.34,1.84-0.5,2.62s-0.29,1.46-.42,2.02H1236v-1.31h1.87l0.19-.19,0.75-.75v-0.19a3.212,3.212,0,0,1,.05-0.42c0.03-.19.06-0.42,0.09-0.7a7.092,7.092,0,0,0,.05-0.71v-25.94a3.2,3.2,0,0,0-.05-0.45c-0.03-.18-0.06-0.35-0.09-0.49a1.822,1.822,0,0,1-.05-0.35l-0.19-.19-0.75-.56h-1.68v-1.31h18.37v0.19c0,0.43.03,1,.1,1.68s0.13,1.52.21,2.49,0.14,1.81.18,2.53,0.07,1.3.07,1.73h-0.18a0.863,0.863,0,0,1-.82-0.28,3.3,3.3,0,0,1-.73-1.36q-0.33-.975-0.63-1.71a2.878,2.878,0,0,0-.64-1.01v-0.14l-0.18-.19a17.867,17.867,0,0,0-1.81-1.45,6.559,6.559,0,0,0-2.5-1.05,6.989,6.989,0,0,0-2.58-.12c-0.75.13-1.39,0.25-1.93,0.38l-0.18.18-0.56.75v12.56l0.18,0.19a6.234,6.234,0,0,1,1.06,0c0.39,0.03.86,0.07,1.4,0.1a5.41,5.41,0,0,0,1.57-.14,7.175,7.175,0,0,0,1.41-.52,5.752,5.752,0,0,0,.45-1.27,5.934,5.934,0,0,0,.14-1.38c-0.02-.45-0.04-0.84-0.07-1.17a2.451,2.451,0,0,1,.04-0.87h1.31v12.38h-1.31v-0.19a5.061,5.061,0,0,1-.02-0.89c0.01-.34.02-0.75,0.02-1.22a8.608,8.608,0,0,0-.11-1.36c-0.08-.44-0.17-0.84-0.26-1.22l-0.19-.18a4.425,4.425,0,0,0-.98-0.57,3.1,3.1,0,0,0-1.22-.21c-0.44.02-.8,0.04-1.08,0.07a1.542,1.542,0,0,1-.7-0.05h-1.46l-0.18.19v12.75a0.644,0.644,0,0,0-.05.31,1.828,1.828,0,0,0,.09.51,5.459,5.459,0,0,0,.19.54,3.571,3.571,0,0,0,.14.33l0.19,0.19a10.445,10.445,0,0,0,1.68.68,5.779,5.779,0,0,0,2.28.16,10.564,10.564,0,0,0,2.37-.51c0.71-.25,1.34-0.49,1.87-0.71a17.478,17.478,0,0,0,1.27-1.29,9.951,9.951,0,0,0,1.29-1.82,15.225,15.225,0,0,0,.89-1.88c0.2-.55.38-1.01,0.53-1.38v-0.19h1.32v0.19c-0.1.47-.21,1.04-0.35,1.71S1255.79,1288.14,1255.62,1289.11Zm-24.05-20.41a2.256,2.256,0,0,1-.8-1.11c-0.23-.56-0.43-1.04-0.58-1.45a3.523,3.523,0,0,0-.42-0.84,0.939,0.939,0,0,1-.12-0.14c-0.05-.07-0.11-0.16-0.19-0.29a1.354,1.354,0,0,1-.16-0.32,0.856,0.856,0,0,1-.05-0.24l-0.19-.19c-0.06-.09-0.15-0.21-0.28-0.37a5.528,5.528,0,0,0-.56-0.59c-0.25-.23-0.46-0.42-0.63-0.56a4.269,4.269,0,0,1-.4-0.35H1227l-0.75-.19h-0.19l-1.12.38-0.19.19a2.063,2.063,0,0,0-.33.65,5.688,5.688,0,0,0-.21.99,5.6,5.6,0,0,0-.05.96c0.02,0.26.03,0.46,0.03,0.58v24.57a1.13,1.13,0,0,0-.05.35,3.059,3.059,0,0,0,.07.58,6.425,6.425,0,0,0,.16.66c0.07,0.19.13,0.34,0.19,0.47l0.19,0.18a3.058,3.058,0,0,0,.61.17,4.321,4.321,0,0,0,.84.07c0.32,0,.58-0.01.8-0.02s0.41-.03.56-0.03v1.31h-10.5v-1.31h0.14c0.16,0,.35.01,0.59,0.03s0.5,0.03.8,0.04a3.817,3.817,0,0,0,1.66-.26l0.19-.18,0.37-.38v-28.87l-0.18-.19-0.75-.75h-0.19l-0.75-.19h-0.19c-0.09.03-.19,0.07-0.28,0.1a4.013,4.013,0,0,0-.38.14c-0.15.06-.3,0.12-0.44,0.18a2.884,2.884,0,0,1-.4.15l-0.19.18c-0.37.35-.77,0.76-1.19,1.24a11.025,11.025,0,0,0-1.2,1.74,16.714,16.714,0,0,0-.87,1.78c-0.2.52-.36,0.93-0.49,1.24H1212v-0.18c0.03-.47.08-1.05,0.14-1.74s0.15-1.44.26-2.27,0.19-1.55.23-2.16,0.09-1.12.12-1.52h19.31v0.19c0,0.4.02,0.92,0.05,1.54s0.09,1.38.19,2.25,0.16,1.64.21,2.3,0.08,1.19.12,1.59h-0.19A1.014,1.014,0,0,1,1231.57,1268.7Zm-31.7-8.19s1,0.18,1.44.31c0.91,0.27,1.67.49,2.3,0.68a1.431,1.431,0,0,0,.51,0,3.836,3.836,0,0,0,1.67-.77c0.23-.21.43-0.39,0.59-0.54l0.18,0.19c0.1,0.5.25,1.14,0.47,1.94s0.49,1.73.82,2.79,0.6,1.96.82,2.69,0.39,1.33.52,1.76l-0.19.19a3.366,3.366,0,0,1-.37.09,1.113,1.113,0,0,1-.54-0.02,0.594,0.594,0,0,1-.43-0.33,1.408,1.408,0,0,1-.11-0.54,13.89,13.89,0,0,0-1.39-2.43,13.21,13.21,0,0,0-2.9-2.98,8.494,8.494,0,0,0-3.45-1.78c-1.85,2.69-3.81,11.24-3.81,11.24a7.337,7.337,0,0,0,1.14.71c0.88,0.55,1.87,1.11,2.98,1.69s2.08,1.09,2.93,1.55,1.57,0.86,2.2,1.24l0.19,0.19a11.479,11.479,0,0,1,1.94,1.61,7.717,7.717,0,0,1,1.71,2.72,6.373,6.373,0,0,1,.52,2.98,9.885,9.885,0,0,1-.42,2.11,8.944,8.944,0,0,1-1.92,3.18,8.807,8.807,0,0,1-4.11,2.47,10.275,10.275,0,0,1-4.54.51,10.455,10.455,0,0,1-2.79-.73c-0.25-.12-0.52-0.25-0.8-0.37a3.018,3.018,0,0,0-.94-0.24,2.944,2.944,0,0,0-.91.05c-0.27.06-.49,0.11-0.68,0.14l-0.19.19a0.253,0.253,0,0,0-.14.07c-0.06.05-.15,0.11-0.26,0.19a1.867,1.867,0,0,0-.3.26l-0.23.23-0.19-.19c-0.07-.22-0.15-0.5-0.26-0.84-0.08-.26-0.19-0.58-0.3-0.93l-4.15,15.34-0.96-.26,30-111,0.96,0.26-19.6,72.55Zm-8,27.52a16.68,16.68,0,0,0,4.26,3.68,7.525,7.525,0,0,0,5,1.1,5.94,5.94,0,0,0,4.57-2.83,5.1,5.1,0,0,0,.72-1.95,6.59,6.59,0,0,0,.1-1.87c-0.07-.5-0.11-0.91-0.14-1.22l-0.19-.19a7.916,7.916,0,0,0-1.5-2.23,12.555,12.555,0,0,0-2.96-2.29c-1.25-.74-2.32-1.32-3.23-1.74a13.467,13.467,0,0,1-2.02-1.1,16.327,16.327,0,0,1-1.72-.9l-3.16,11.72A0.429,0.429,0,0,1,1191.87,1288.03Z" transform="translate(-1185.53 -1195.88)"/>
</svg>
